<svg xmlns="http://www.w3.org/2000/svg" width="1024" height="1024" viewBox="0 0 1024 1024"><defs><filter id="a" width="200%" height="200%" x="-50%" y="-50%"><feGaussianBlur in="SourceGraphic" stdDeviation="40"/></filter><filter id="b" width="140%" height="140%" x="-20%" y="-20%"><feGaussianBlur in="SourceGraphic" result="blur1" stdDeviation="6"/><feGaussianBlur in="SourceGraphic" result="blur2" stdDeviation="14"/><feMerge><feMergeNode in="blur2"/><feMergeNode in="blur1"/><feMergeNode in="SourceGraphic"/></feMerge></filter><filter id="k" width="260%" height="260%" x="-80%" y="-80%"><feGaussianBlur in="SourceGraphic" result="blur1" stdDeviation="8"/><feGaussianBlur in="SourceGraphic" result="blur2" stdDeviation="16"/><feColorMatrix in="blur2" result="pinkBlur" values="0 0 0 0 1 0 0 0 0 0 0 0 0 0 0.43 0 0 0 0.5 0"/><feMerge><feMergeNode in="pinkBlur"/><feMergeNode in="blur1"/><feMergeNode in="SourceGraphic"/></feMerge></filter><filter id="m" width="260%" height="260%" x="-80%" y="-80%"><feGaussianBlur in="SourceGraphic" result="blur1" stdDeviation="8"/><feGaussianBlur in="SourceGraphic" result="blur2" stdDeviation="16"/><feColorMatrix in="blur2" result="greenBlur" values="0 0 0 0 0.02 0 0 0 0 0.84 0 0 0 0 0.63 0 0 0 0.5 0"/><feMerge><feMergeNode in="greenBlur"/><feMergeNode in="blur1"/><feMergeNode in="SourceGraphic"/></feMerge></filter><filter id="l" width="260%" height="260%" x="-80%" y="-80%"><feGaussianBlur in="SourceGraphic" result="blur1" stdDeviation="8"/><feGaussianBlur in="SourceGraphic" result="blur2" stdDeviation="16"/><feColorMatrix in="blur2" result="purpleBlur" values="0 0 0 0 0.66 0 0 0 0 0.33 0 0 0 0 0.97 0 0 0 0.5 0"/><feMerge><feMergeNode in="purpleBlur"/><feMergeNode in="blur1"/><feMergeNode in="SourceGraphic"/></feMerge></filter><filter id="n" width="260%" height="260%" x="-80%" y="-80%"><feGaussianBlur in="SourceGraphic" result="blur1" stdDeviation="8"/><feGaussianBlur in="SourceGraphic" result="blur2" stdDeviation="16"/><feColorMatrix in="blur2" result="blueBlur" values="0 0 0 0 0.23 0 0 0 0 0.53 0 0 0 0 1 0 0 0 0.5 0"/><feMerge><feMergeNode in="blueBlur"/><feMergeNode in="blur1"/><feMergeNode in="SourceGraphic"/></feMerge></filter><linearGradient id="c" x1="0" x2="1" y1="0" y2="0"><stop offset="0%" stop-color="#ff006e"/><stop offset="100%" stop-color="#a855f7"/></linearGradient><linearGradient id="i" x1="0" x2="0" y1="0" y2="1"><stop offset="0%" stop-color="#a855f7"/><stop offset="100%" stop-color="#3a86ff"/></linearGradient><linearGradient id="e" x1="1" x2="0" y1="0" y2="0"><stop offset="0%" stop-color="#3a86ff"/><stop offset="100%" stop-color="#06d6a0"/></linearGradient><linearGradient id="g" x1="0" x2="0" y1="1" y2="0"><stop offset="0%" stop-color="#06d6a0"/><stop offset="100%" stop-color="#ff006e"/></linearGradient><clipPath id="d"><path d="M200 200h624v312H200z"/></clipPath><clipPath id="f"><path d="M200 512h624v312H200z"/></clipPath><clipPath id="h"><path d="M200 200h312v624H200z"/></clipPath><clipPath id="j"><path d="M512 200h312v624H512z"/></clipPath></defs><path fill="#06060f" d="M0 0h1024v1024H0z"/><rect width="300" height="300" x="212" y="212" fill="#ff006e" filter="url(#a)" opacity=".04" rx="20"/><rect width="300" height="300" x="512" y="212" fill="#a855f7" filter="url(#a)" opacity=".04" rx="20"/><rect width="300" height="300" x="212" y="512" fill="#06d6a0" filter="url(#a)" opacity=".04" rx="20"/><rect width="300" height="300" x="512" y="512" fill="#3a86ff" filter="url(#a)" opacity=".04" rx="20"/><rect width="600" height="600" x="212" y="212" fill="#fff" fill-opacity=".07" rx="40"/><rect width="600" height="300" x="212" y="212" fill="#fff" fill-opacity=".02" rx="40"/><g fill="none" stroke-width="4" filter="url(#b)"><rect width="600" height="600" x="212" y="212" stroke="url(#c)" clip-path="url(#d)" rx="40"/><rect width="600" height="600" x="212" y="212" stroke="url(#e)" clip-path="url(#f)" rx="40"/><rect width="600" height="600" x="212" y="212" stroke="url(#g)" clip-path="url(#h)" rx="40"/><rect width="600" height="600" x="212" y="212" stroke="url(#i)" clip-path="url(#j)" rx="40"/></g><path stroke="#fff" stroke-opacity=".15" stroke-width="2" d="M512 232v560M232 512h560"/><g filter="url(#k)" transform="translate(362 362)"><path fill="#ff006e" d="M0 20C0 8-20-14-38-14c-24 0-24 30-24 30 0 24 32 46 62 66 30-20 62-42 62-66 0 0 0-30-24-30C20-14 0 8 0 20" opacity=".9"/></g><g filter="url(#l)" transform="translate(662 362)"><path fill="#a855f7" d="M-2-55c-28 0-53 15-56 40-4 25 8 45 23 57 10 8 25 16 33 18Z" opacity=".85"/><path fill="#a855f7" d="M2-55c28 0 53 15 56 40 4 25-8 45-23 57-10 8-25 16-33 18Z" opacity=".75"/><path stroke="#06060f" stroke-width="3" d="M0-55V60" opacity=".4"/><path fill="none" stroke="#06060f" stroke-linecap="round" stroke-width="2.5" d="M-10-30c-15 2-32 10-38 20" opacity=".3"/><path fill="none" stroke="#06060f" stroke-linecap="round" stroke-width="2.5" d="M-8-8C-22-5-40 2-52 12" opacity=".25"/><path fill="none" stroke="#06060f" stroke-linecap="round" stroke-width="2" d="M-6 18c-12 4-26 12-32 20" opacity=".2"/><path fill="none" stroke="#06060f" stroke-linecap="round" stroke-width="2.5" d="M10-30c15 2 32 10 38 20" opacity=".3"/><path fill="none" stroke="#06060f" stroke-linecap="round" stroke-width="2.5" d="M8-8C22-5 40 2 52 12" opacity=".25"/><path fill="none" stroke="#06060f" stroke-linecap="round" stroke-width="2" d="M6 18c12 4 26 12 32 20" opacity=".2"/></g><g filter="url(#m)" transform="translate(362 662)"><path fill="#06d6a0" d="M0 70c-8-20-45-50-45-85 0-27 20-47 45-47s45 20 45 47C45 20 8 50 0 70" opacity=".9"/><circle cy="-15" r="18" fill="#06060f" opacity=".5"/><circle cy="-15" r="10" fill="#06d6a0" opacity=".4"/></g><g filter="url(#n)" transform="translate(662 662)"><path fill="#3a86ff" d="M0-65s-45 55-45 85c0 25 20 45 45 45s45-20 45-45C45-10 0-65 0-65" opacity=".9"/><ellipse cx="-12" cy="-5" fill="#fff" opacity=".25" rx="12" ry="20" transform="rotate(-15 -12 -5)"/><circle cx="-10" cy="-15" r="5" fill="#fff" opacity=".35"/></g><path fill="none" stroke="#fff" stroke-opacity=".2" d="M252 212h-40v40"/><path fill="none" stroke="#fff" stroke-opacity=".15" d="M772 212h40v40"/><path fill="none" stroke="#fff" stroke-opacity=".1" d="M212 772v40h40M812 772v40h-40"/><rect width="592" height="592" x="216" y="216" fill="none" stroke="#fff" stroke-opacity=".06" rx="38"/></svg>